 <svg  version="1.0" xmlns="http://www.w3.org/2000/svg"  width="300.000000pt" height="300.000000pt" viewBox="0 0 300.000000 300.000000"  preserveAspectRatio="xMidYMid meet">  <g transform="translate(0.000000,300.000000) scale(0.100000,-0.100000)" fill="#808080" stroke="none"> <path d="M280 1595 l0 -215 240 0 240 0 0 215 0 215 -240 0 -240 0 0 -215z m368 195 l92 0 0 -195 0 -195 -220 0 -220 0 0 195 0 194 93 4 c50 2 108 2 127 1 19 -2 77 -3 128 -4z"/> <path d="M485 1773 c-54 -10 -68 -16 -104 -48 -48 -44 -66 -102 -57 -187 9 -92 38 -127 92 -114 25 7 25 9 19 56 -4 29 -2 56 4 69 14 26 61 51 95 51 32 0 74 37 80 70 7 41 -19 88 -51 95 -47 10 -57 11 -78 8z m66 -46 c46 -35 27 -74 -48 -95 -53 -16 -90 -59 -99 -117 -7 -51 -16 -56 -32 -20 -17 37 -14 124 6 165 30 61 130 100 173 67z"/> <path d="M634 1738 c28 -40 16 -119 -20 -141 -12 -7 -11 -13 2 -39 11 -21 15 -46 11 -74 -5 -49 3 -67 28 -62 44 8 77 145 56 226 -7 23 -26 58 -42 77 -34 39 -59 48 -35 13z m37 -211 c-16 -16 -25 38 -9 65 13 22 13 22 16 -16 2 -21 -1 -43 -7 -49z"/> <path d="M541 1565 c-19 -9 -44 -12 -58 -8 -17 4 -24 2 -19 -5 3 -6 2 -12 -4 -14 -5 -1 11 -3 36 -4 28 -1 40 2 32 8 -8 4 2 5 22 2 19 -4 39 -11 45 -16 5 -5 -5 -6 -24 -2 -25 5 -32 4 -27 -4 9 -15 5 -15 -28 -2 -33 12 -85 -5 -68 -22 9 -9 28 -9 76 0 35 7 72 9 81 6 15 -6 16 -4 4 17 -7 13 -11 24 -10 24 1 0 -1 8 -4 18 -8 20 -10 20 -54 2z"/> <path d="M1058 1702 c-25 -18 -20 -60 8 -79 18 -12 24 -11 40 4 11 10 15 15 10 11 -30 -24 -63 5 -51 43 7 20 45 27 45 9 0 -7 6 -7 19 0 30 16 33 13 29 -30 -3 -37 -2 -40 22 -39 14 0 19 3 13 6 -7 2 -13 20 -13 38 0 29 3 33 26 31 23 -1 25 -4 22 -38 -3 -33 -1 -38 17 -38 17 0 20 6 20 44 l0 45 -94 3 c-67 2 -99 -1 -113 -10z"/> <path d="M1302 1705 c-30 -21 -29 -60 2 -80 19 -13 29 -14 45 -5 12 6 21 16 21 22 0 9 -3 9 -12 0 -7 -7 -20 -12 -30 -12 -14 0 -18 8 -18 35 0 28 4 35 20 35 11 0 20 -4 20 -10 0 -5 5 -10 10 -10 6 0 10 7 10 15 0 8 -4 15 -9 15 -5 0 -15 2 -23 5 -7 3 -23 -2 -36 -10z"/> <path d="M1426 1708 c-24 -13 -20 -37 9 -50 30 -14 33 -28 5 -28 -11 0 -20 5 -20 10 0 6 -4 10 -10 10 -21 0 -9 -28 14 -32 52 -10 77 33 31 54 -14 6 -25 15 -25 20 0 12 24 10 38 -4 9 -9 12 -8 12 4 0 19 -31 29 -54 16z"/> <path d="M2164 1709 c-38 -14 -36 -81 3 -91 25 -7 59 7 66 26 5 12 0 16 -18 16 -18 0 -23 -4 -18 -16 4 -12 1 -15 -13 -12 -25 4 -32 55 -10 64 9 4 23 1 31 -6 12 -10 15 -10 15 3 0 18 -29 27 -56 16z"/> <path d="M2391 1704 c-30 -21 -29 -72 2 -83 39 -15 62 2 62 44 0 45 -29 63 -64 39z m44 -39 c0 -23 -4 -30 -20 -30 -21 0 -31 25 -21 51 11 28 41 12 41 -21z"/> <path d="M2498 1708 c-29 -22 -27 -72 3 -88 16 -9 26 -8 45 5 31 20 32 59 2 79 -27 19 -30 19 -50 4z m47 -27 c8 -26 -5 -53 -24 -49 -29 6 -27 68 3 68 8 0 17 -8 21 -19z"/> <path d="M855 1673 c-9 -21 -21 -41 -28 -45 -8 -5 -4 -8 11 -8 12 0 21 5 20 12 -2 6 6 14 16 16 14 3 17 0 13 -12 -5 -13 2 -16 42 -16 46 0 49 2 45 23 l-5 22 17 -22 c9 -13 25 -23 36 -23 19 0 19 1 -3 19 -20 16 -21 21 -10 34 19 24 4 37 -42 36 -23 0 -36 -3 -29 -6 6 -2 12 -20 12 -39 0 -48 -26 -44 -46 6 -9 22 -20 40 -25 40 -5 0 -16 -17 -24 -37z"/> <path d="M1509 1665 c9 -25 19 -45 24 -45 14 0 20 32 8 39 -7 4 -13 18 -14 29 -1 13 -8 22 -18 22 -15 0 -15 -3 0 -45z"/> <path d="M1556 1693 c-4 -9 -3 -19 2 -22 5 -3 12 -16 16 -28 11 -33 22 -28 40 17 9 22 21 40 27 40 7 0 10 -15 7 -40 -3 -35 -1 -40 17 -40 17 0 20 6 20 45 l0 45 -42 0 c-33 0 -41 -3 -37 -14 3 -8 1 -23 -4 -32 -8 -15 -11 -13 -17 14 -7 35 -19 41 -29 15z"/> <path d="M1705 1665 c0 -25 5 -45 10 -45 6 0 10 16 8 38 -3 36 0 33 19 -18 9 -23 10 -24 20 -6 7 12 7 21 0 25 -5 3 -11 15 -13 26 -3 11 -13 21 -24 23 -17 2 -20 -3 -20 -43z"/> <path d="M1776 1694 c-9 -24 -7 -31 5 -14 8 11 9 6 7 -22 -3 -29 0 -38 12 -38 11 0 15 11 15 45 0 35 -4 45 -16 45 -9 0 -20 -7 -23 -16z"/> <path d="M1835 1665 c0 -38 3 -45 20 -45 15 0 16 3 7 12 -7 7 -12 23 -11 38 0 22 3 20 18 -14 21 -49 38 -32 20 19 -9 25 -19 35 -34 35 -17 0 -20 -6 -20 -45z"/> <path d="M1910 1701 c0 -5 -3 -18 -6 -28 -5 -15 -4 -16 6 -3 9 12 11 9 7 -17 -3 -30 -1 -33 22 -33 19 0 22 3 13 12 -7 7 -12 21 -12 33 0 12 5 26 12 33 9 9 6 12 -15 12 -15 0 -27 -4 -27 -9z"/> <path d="M1975 1665 l0 -45 41 0 c40 0 40 0 36 33 l-4 32 27 -32 c27 -34 52 -44 42 -19 -3 8 -2 29 3 45 7 27 6 31 -11 31 -17 0 -17 -3 -7 -20 19 -30 1 -36 -23 -7 -16 22 -29 27 -62 27 l-42 0 0 -45z m65 0 c0 -28 -4 -35 -20 -35 -16 0 -20 7 -20 35 0 28 4 35 20 35 16 0 20 -7 20 -35z"/> <path d="M2278 1704 c6 -3 12 -21 12 -39 0 -18 -6 -36 -12 -38 -7 -3 -1 -6 14 -6 21 -1 25 3 21 18 -4 15 1 20 19 23 15 2 23 10 23 23 0 17 -7 20 -45 22 -25 1 -39 0 -32 -3z"/> <path d="M2585 1665 l0 -45 43 0 c33 0 42 4 42 17 0 13 -3 14 -12 5 -25 -25 -40 -14 -36 28 3 35 1 40 -17 40 -17 0 -20 -6 -20 -45z"/> <path d="M850 1570 c-23 -23 -25 -39 -7 -64 16 -21 68 -19 75 4 5 13 3 13 -11 1 -23 -18 -47 -7 -47 22 0 36 20 50 42 30 16 -14 18 -14 18 -1 0 15 -20 28 -41 28 -5 0 -18 -9 -29 -20z"/> <path d="M946 1574 c-19 -18 -21 -55 -4 -72 27 -27 88 -3 88 34 0 18 -36 54 -54 54 -8 0 -22 -7 -30 -16z m52 -43 c-4 -32 -34 -40 -43 -12 -3 11 -1 30 5 41 9 17 14 19 26 9 8 -7 14 -24 12 -38z"/> <path d="M1100 1584 c0 -3 5 -14 11 -26 17 -31 2 -34 -22 -5 -28 37 -47 35 -41 -3 2 -17 -1 -37 -8 -45 -10 -12 -9 -15 7 -15 16 0 19 6 15 33 l-4 32 27 -32 c31 -39 43 -42 42 -10 -1 12 2 34 6 50 6 23 4 27 -13 27 -11 0 -20 -3 -20 -6z"/> <path d="M1163 1584 c-22 -10 -14 -44 12 -54 30 -11 33 -30 5 -30 -11 0 -20 5 -20 10 0 6 -4 10 -10 10 -5 0 -10 -7 -10 -16 0 -12 9 -14 38 -12 29 2 38 7 40 25 3 17 -3 24 -22 29 -14 3 -26 12 -26 20 0 18 14 18 30 -1 9 -11 17 -12 30 -5 10 6 21 10 24 10 12 0 6 -69 -6 -73 -7 -3 3 -5 22 -5 19 0 29 2 23 5 -7 2 -13 20 -13 40 0 30 3 34 20 28 11 -4 20 -2 20 4 0 7 -22 11 -52 11 -29 0 -62 2 -73 5 -11 2 -26 2 -32 -1z"/> <path d="M1449 1583 c-12 -3 -14 -13 -10 -46 5 -36 10 -42 33 -45 29 -4 41 11 51 66 5 27 3 32 -12 32 -16 0 -18 -6 -13 -46 4 -41 3 -46 -14 -42 -15 3 -19 12 -18 46 0 23 0 41 0 41 -1 -1 -8 -3 -17 -6z"/> <path d="M1551 1571 c-24 -24 -26 -40 -8 -65 16 -21 68 -19 75 4 5 13 3 13 -11 1 -23 -18 -47 -7 -47 22 0 35 20 50 41 31 11 -10 19 -12 24 -5 3 6 13 11 21 11 17 0 19 -51 2 -68 -9 -9 -7 -12 13 -12 23 0 24 3 21 45 -4 43 -5 45 -36 45 -17 0 -41 3 -53 6 -14 4 -28 -1 -42 -15z"/> <path d="M1798 1579 c-21 -12 -24 -59 -6 -77 19 -19 55 -14 72 9 16 23 12 47 -12 67 -19 14 -31 15 -54 1z m50 -48 c-4 -36 -35 -40 -44 -7 -8 34 12 62 33 44 8 -6 13 -23 11 -37z"/> <path d="M1957 1558 l6 -33 -22 28 c-13 15 -32 27 -44 26 -12 0 -16 -3 -9 -6 15 -6 16 -37 2 -64 -9 -16 -7 -19 8 -19 15 0 18 6 14 33 l-4 32 31 -35 30 -35 1 37 c0 20 5 40 10 43 17 10 11 25 -10 25 -17 0 -19 -5 -13 -32z"/> <path d="M2043 1583 c-22 -8 -14 -43 12 -53 14 -5 25 -14 25 -20 0 -13 -27 -13 -35 0 -9 15 -25 12 -25 -6 0 -12 9 -14 38 -12 29 2 38 7 40 25 3 17 -3 24 -22 29 -26 6 -32 15 -19 27 3 4 15 0 25 -10 16 -14 18 -14 18 -1 0 22 -29 33 -57 21z"/> <path d="M2160 1580 c0 -5 5 -10 10 -10 7 0 7 -6 0 -19 -7 -13 -7 -22 0 -26 5 -3 10 0 10 7 0 7 3 23 6 36 5 16 2 22 -10 22 -9 0 -16 -4 -16 -10z"/> <path d="M2329 1582 c-15 -6 -15 -11 2 -49 10 -24 22 -43 26 -43 4 0 16 18 25 40 21 51 22 54 9 58 -6 2 -11 -7 -11 -20 0 -12 -4 -29 -9 -37 -7 -11 -11 -8 -17 10 -4 13 -7 30 -6 37 3 13 3 13 -19 4z"/> <path d="M2438 1583 c-11 -3 -17 -18 -20 -49 -3 -39 -1 -44 17 -44 17 0 20 7 20 50 0 28 0 49 0 49 0 -1 -7 -3 -17 -6z"/> <path d="M2487 1572 c-20 -22 -22 -53 -5 -70 18 -18 53 -15 69 6 13 15 12 16 -3 3 -26 -19 -48 -7 -48 28 0 37 19 50 36 26 8 -10 17 -15 21 -11 9 8 -24 36 -42 36 -7 0 -19 -8 -28 -18z"/> <path d="M2610 1580 c0 -5 5 -10 10 -10 7 0 7 -6 0 -19 -7 -13 -7 -22 0 -26 5 -3 10 3 10 14 0 10 5 21 12 23 6 2 8 10 4 16 -9 15 -36 16 -36 2z"/> <path d="M2672 1578 c-19 -19 -14 -38 13 -48 26 -10 34 -30 12 -30 -7 0 -18 5 -25 12 -9 9 -12 8 -12 -5 0 -21 52 -24 69 -3 13 15 9 21 -33 50 -12 8 -15 15 -8 20 6 3 18 -1 26 -10 14 -13 16 -13 16 -1 0 25 -38 35 -58 15z"/> <path d="M1328 1535 c-3 -41 -1 -45 20 -45 20 0 21 3 12 20 -6 11 -7 20 -3 20 5 0 14 -9 21 -20 7 -11 20 -20 29 -20 14 0 14 2 -2 20 -14 16 -15 23 -6 34 14 17 7 36 -14 36 -8 0 -11 -7 -8 -20 4 -14 0 -20 -10 -20 -10 0 -13 6 -10 20 4 14 0 20 -10 20 -11 0 -16 -13 -19 -45z"/> <path d="M1725 1535 c0 -41 2 -45 25 -45 18 0 21 3 11 9 -9 6 -12 21 -9 45 3 28 0 36 -12 36 -11 0 -15 -11 -15 -45z"/> <path d="M2123 1553 c3 -15 1 -36 -4 -45 -9 -16 -5 -18 36 -18 36 0 45 3 45 17 0 13 -3 14 -12 5 -24 -24 -38 -13 -38 28 0 30 -4 40 -16 40 -12 0 -15 -7 -11 -27z"/> <path d="M2215 1535 c0 -35 4 -45 17 -45 12 0 15 6 11 23 l-5 22 20 -22 c11 -13 28 -23 38 -23 15 0 14 3 -6 25 -13 14 -18 25 -12 25 7 0 12 9 12 20 0 16 -7 20 -37 20 l-38 0 0 -45z"/> <path d="M2578 1544 c3 -24 0 -39 -9 -45 -9 -6 3 -9 34 -9 38 0 47 3 46 18 0 10 -3 12 -6 5 -2 -7 -13 -13 -24 -13 -16 0 -19 7 -19 40 0 26 -5 40 -13 40 -9 0 -12 -11 -9 -36z"/> </g> </svg> 