 <svg  version="1.0" xmlns="http://www.w3.org/2000/svg"  width="900.000000pt" height="87.000000pt" viewBox="0 0 900.000000 87.000000"  preserveAspectRatio="xMidYMid meet">  <g transform="translate(0.000000,87.000000) scale(0.100000,-0.100000)" fill="#9c9c9c" stroke="none"> <path d="M670 845 c0 -16 -6 -25 -16 -25 -9 0 -151 -134 -316 -297 -164 -164 -303 -300 -309 -301 -19 -7 -8 -36 30 -73 21 -22 44 -39 51 -39 7 0 138 126 292 281 214 214 277 284 268 292 -9 9 -14 8 -24 -5 -7 -10 -16 -18 -20 -18 -4 0 -118 -111 -252 -246 -135 -135 -250 -244 -257 -241 -7 2 -13 15 -15 30 -2 20 6 37 33 64 20 21 40 43 43 48 4 6 28 27 53 48 25 20 51 48 59 62 8 14 29 33 46 41 18 9 42 31 53 50 11 19 41 48 66 66 25 17 45 35 45 38 0 4 40 49 90 100 102 107 98 106 185 27 91 -83 146 -127 158 -127 7 0 4 7 -5 14 -10 7 -18 16 -18 19 0 13 -156 160 -177 168 -14 5 -23 17 -23 29 0 13 -7 20 -20 20 -15 0 -20 -7 -20 -25z"/> <path d="M1522 798 c-9 -9 -12 -104 -12 -368 0 -385 3 -405 48 -381 22 12 22 12 22 376 0 350 -1 365 -19 375 -24 13 -24 13 -39 -2z"/> <path d="M972 788 c-14 -14 -16 -96 -3 -117 6 -10 11 -4 16 20 9 42 22 59 45 59 25 0 30 -28 30 -163 0 -137 -3 -131 123 -260 91 -93 111 -121 103 -142 -9 -25 -24 -17 -94 50 -36 36 -70 65 -74 65 -5 0 -8 7 -8 15 0 8 -7 15 -15 15 -8 0 -15 7 -15 15 0 8 -4 15 -8 15 -5 0 -84 74 -176 165 -148 146 -196 184 -180 142 2 -7 123 -131 269 -276 146 -145 265 -268 265 -273 0 -21 46 -4 81 31 36 36 51 71 30 71 -5 0 -38 28 -73 63 -36 34 -96 90 -133 125 l-68 63 7 145 c8 175 5 184 -62 184 -27 0 -53 -5 -60 -12z"/> <path d="M3279 731 c-20 -16 -22 -23 -14 -47 9 -24 17 -30 48 -32 21 -2 45 2 53 9 21 17 17 56 -8 73 -30 21 -51 20 -79 -3z"/> <path d="M5940 744 c-9 -3 -21 -14 -29 -26 -17 -27 1 -64 35 -71 59 -11 99 54 52 87 -23 16 -30 17 -58 10z"/> <path d="M3510 444 c0 -184 4 -303 10 -315 11 -20 70 -28 70 -9 0 6 1 141 1 300 0 160 -1 297 -1 305 0 11 -11 15 -40 15 l-40 0 0 -296z"/> <path d="M6445 728 c-3 -7 -4 -49 -3 -93 3 -75 2 -80 -17 -76 -11 2 -54 4 -95 4 -64 1 -81 -2 -108 -21 -81 -59 -116 -160 -92 -270 15 -67 38 -98 100 -137 34 -22 51 -25 124 -25 69 0 92 4 123 22 21 12 41 27 45 33 4 5 8 137 8 293 l0 282 -40 0 c-23 0 -43 -5 -45 -12z m-5 -247 c5 -11 10 -78 10 -150 0 -123 -1 -131 -22 -145 -12 -9 -42 -16 -66 -16 -124 0 -197 129 -143 250 27 61 62 80 143 80 56 0 69 -3 78 -19z"/> <path d="M1758 694 c-16 -8 -28 -18 -28 -22 -1 -15 -1 -528 -1 -545 1 -15 8 -18 39 -15 l37 3 0 110 0 110 61 3 61 3 54 -76 c30 -42 60 -83 67 -90 6 -8 12 -16 12 -19 0 -18 38 -46 62 -46 21 0 29 6 34 25 5 21 -6 40 -70 114 l-76 89 50 36 c82 59 112 148 73 219 -25 46 -64 87 -82 87 -9 0 -25 7 -35 15 -28 21 -220 20 -258 -1z m219 -67 c55 -16 83 -53 83 -109 0 -37 -5 -49 -32 -75 -31 -29 -38 -31 -118 -33 -47 -2 -91 -2 -97 -1 -10 1 -13 29 -13 106 0 88 3 106 18 114 24 14 109 13 159 -2z"/> <path d="M4480 692 l-35 -17 -5 -260 c-6 -289 -3 -305 50 -305 17 0 31 6 31 13 1 6 2 57 3 112 l1 100 44 3 c68 5 84 -3 127 -63 21 -31 45 -63 52 -70 6 -7 12 -16 12 -20 0 -3 12 -22 26 -41 21 -27 33 -34 60 -34 30 0 34 3 34 26 0 28 -36 80 -107 154 -24 25 -43 48 -43 51 0 3 19 15 43 27 48 25 67 49 86 109 27 84 -19 174 -108 214 -59 26 -220 27 -271 1z m223 -68 c33 -11 52 -25 66 -50 25 -42 26 -54 5 -96 -26 -55 -49 -65 -154 -69 l-95 -4 -3 104 c-2 67 1 108 9 117 16 19 113 18 172 -2z"/> <path d="M2341 563 c-44 -9 -71 -33 -71 -64 0 -25 4 -29 28 -29 15 0 36 7 46 15 13 10 43 15 85 15 59 0 68 -3 89 -27 15 -18 22 -37 20 -58 l-3 -30 -95 -5 c-138 -7 -200 -49 -200 -133 0 -43 33 -107 55 -107 7 0 18 -7 25 -15 9 -11 35 -15 104 -15 101 0 168 20 184 55 12 27 7 276 -7 318 -19 57 -61 79 -155 82 -44 2 -92 1 -105 -2z m197 -300 c3 -54 0 -63 -20 -77 -29 -20 -119 -21 -157 -1 -29 15 -46 53 -37 83 9 27 47 45 111 53 102 12 100 13 103 -58z"/> <path d="M2858 563 c-20 -2 -42 -11 -48 -19 -7 -8 -18 -14 -26 -14 -29 0 -34 -40 -32 -227 l3 -188 40 0 40 0 0 178 c0 210 -2 207 104 207 50 -1 72 -5 89 -19 21 -19 22 -25 22 -183 0 -180 2 -188 57 -188 l33 0 0 173 c-1 188 -7 213 -63 257 -22 17 -44 23 -105 25 -42 2 -94 1 -114 -2z"/> <path d="M3858 563 c-15 -2 -47 -23 -71 -46 -54 -53 -81 -136 -67 -207 17 -84 22 -96 54 -131 54 -57 86 -69 190 -69 87 0 93 1 124 29 17 17 32 37 32 45 0 26 -38 29 -81 7 -50 -26 -109 -27 -159 -1 -41 21 -84 72 -78 92 5 13 144 37 221 38 26 0 61 7 77 15 26 14 30 21 30 60 0 53 -27 103 -76 140 -27 21 -48 27 -102 30 -37 2 -79 1 -94 -2z m163 -93 c22 -22 29 -37 27 -57 -3 -27 -5 -28 -78 -34 -41 -3 -94 -12 -118 -19 -28 -9 -46 -10 -52 -4 -18 18 1 72 38 108 32 33 40 36 94 36 53 0 63 -3 89 -30z"/> <path d="M5109 564 c-34 -7 -95 -63 -119 -110 -26 -51 -28 -172 -3 -217 23 -42 74 -97 89 -97 6 0 17 -7 24 -15 10 -11 35 -15 110 -15 75 0 100 4 110 15 7 8 18 15 25 15 15 0 26 35 18 56 -7 19 -32 18 -76 -6 -69 -37 -167 -16 -216 47 -44 55 -30 61 187 81 133 13 155 38 112 135 -12 26 -38 60 -61 78 -35 28 -49 32 -107 34 -37 2 -78 1 -93 -1z m161 -90 c25 -21 30 -33 28 -58 l-3 -31 -75 -6 c-41 -3 -94 -12 -118 -19 -27 -9 -46 -10 -52 -4 -16 16 6 74 42 111 29 30 37 33 89 33 47 0 63 -5 89 -26z"/> <path d="M5559 564 c-42 -8 -81 -56 -86 -106 -2 -24 2 -53 9 -67 16 -29 83 -70 118 -71 40 -2 113 -35 121 -56 13 -32 10 -44 -17 -69 -45 -42 -128 -31 -196 24 -15 12 -20 11 -37 -10 -11 -13 -20 -27 -21 -31 0 -3 18 -20 39 -37 37 -30 43 -31 132 -31 75 0 100 4 123 19 68 45 85 119 41 178 -29 37 -99 73 -142 73 -32 0 -91 33 -99 55 -3 7 3 25 13 39 16 23 25 25 84 26 48 0 70 -4 79 -16 8 -8 25 -14 39 -12 38 4 41 49 5 73 -27 17 -149 29 -205 19z"/> <path d="M5938 559 c-13 -7 -15 -40 -12 -216 2 -114 3 -214 4 -220 0 -8 14 -13 35 -13 21 0 35 5 36 13 4 55 0 417 -4 425 -10 14 -42 21 -59 11z"/> <path d="M6790 563 c-37 -7 -95 -58 -119 -103 -17 -32 -21 -58 -20 -123 0 -71 4 -88 28 -127 15 -25 46 -56 71 -71 39 -24 56 -28 132 -28 112 -1 157 18 158 67 0 39 -17 42 -73 12 -69 -37 -167 -16 -216 47 -44 55 -24 64 179 81 104 9 145 30 137 70 -27 141 -125 203 -277 175z m161 -95 c20 -22 29 -41 27 -58 -3 -24 -7 -25 -78 -31 -41 -3 -94 -12 -118 -19 -31 -10 -46 -10 -54 -2 -16 16 6 70 44 109 29 30 37 33 91 33 53 0 61 -3 88 -32z"/> <path d="M7273 563 c-17 -2 -37 -11 -43 -19 -7 -8 -17 -14 -22 -14 -5 0 -18 -10 -28 -22 -15 -19 -18 -45 -19 -191 -1 -100 3 -176 9 -187 8 -14 21 -20 45 -20 l35 0 0 178 c0 215 -2 212 108 212 65 0 72 -2 92 -27 19 -25 21 -38 19 -180 -1 -168 3 -183 52 -183 l29 0 0 188 0 189 -35 35 c-45 45 -116 57 -242 41z"/> <path d="M7825 563 c-41 -7 -108 -64 -134 -113 -16 -30 -21 -59 -21 -111 0 -93 31 -157 98 -199 42 -27 56 -30 129 -30 99 0 143 19 143 63 0 38 -22 43 -70 18 -70 -36 -142 -20 -191 42 -30 39 -32 171 -3 211 11 14 24 26 30 26 6 0 17 7 24 15 17 21 123 21 140 -1 8 -8 25 -14 39 -12 38 4 42 50 6 74 -26 17 -132 27 -190 17z"/> <path d="M8270 563 c-101 -19 -184 -202 -135 -297 8 -15 15 -33 15 -40 1 -17 31 -49 79 -84 42 -31 48 -32 138 -32 81 0 99 3 121 21 35 27 43 50 25 71 -14 16 -18 16 -64 -7 -59 -30 -107 -32 -159 -5 -42 22 -85 73 -77 94 5 13 55 22 202 35 106 9 125 20 125 72 0 48 -22 92 -69 135 -42 40 -114 53 -201 37z m159 -88 c13 -15 24 -39 25 -57 l1 -33 -75 -6 c-41 -3 -94 -12 -118 -19 -28 -9 -46 -10 -52 -4 -18 18 1 72 38 108 33 33 40 36 96 36 52 0 65 -4 85 -25z"/> <path d="M8720 563 c-14 -2 -40 -19 -57 -36 -29 -27 -33 -37 -33 -82 0 -41 5 -56 23 -72 28 -26 81 -53 104 -53 10 0 40 -8 66 -17 47 -17 66 -43 58 -83 -5 -27 -45 -50 -88 -50 -39 0 -123 33 -131 52 -8 17 -32 7 -38 -16 -7 -31 3 -66 20 -66 8 0 19 -7 26 -15 10 -11 35 -15 110 -15 75 0 100 4 110 15 7 8 17 15 22 15 5 0 18 10 29 23 26 32 26 116 -2 150 -23 30 -99 67 -136 67 -32 0 -80 26 -93 50 -8 15 -7 26 6 45 15 23 23 25 84 25 49 0 71 -4 80 -16 21 -24 64 -14 67 16 5 41 -35 61 -125 65 -42 2 -88 1 -102 -2z"/> <path d="M3280 351 c0 -115 3 -216 6 -225 7 -18 59 -22 69 -5 9 13 8 416 0 429 -3 6 -22 10 -41 10 l-34 0 0 -209z"/> <path d="M572 398 c-9 -9 -12 -68 -12 -205 0 -186 1 -193 20 -193 19 0 20 8 22 183 l3 182 70 3 c123 5 114 19 117 -186 3 -148 5 -177 18 -180 23 -4 28 369 4 392 -20 20 -223 23 -242 4z"/> </g> </svg> 