<?xml version="1.0" standalone="no"?>
<!DOCTYPE svg PUBLIC "-//W3C//DTD SVG 20010904//EN"
 "http://www.w3.org/TR/2001/REC-SVG-20010904/DTD/svg10.dtd">
<svg version="1.0" xmlns="http://www.w3.org/2000/svg"
 width="300.000000pt" height="300.000000pt" viewBox="0 0 300.000000 300.000000"
 preserveAspectRatio="xMidYMid meet">
<metadata>
Created by potrace 1.10, written by Peter Selinger 2001-2011
</metadata>
<g transform="translate(0.000000,300.000000) scale(0.100000,-0.100000)"
fill="#8a8a8a" stroke="none">
<path d="M1276 2987 c-16 -12 -17 -22 -6 -137 13 -133 24 -159 61 -139 14 7
19 21 19 49 0 51 19 52 51 3 19 -30 31 -38 54 -38 56 0 42 74 -14 76 l-26 1
26 9 c32 12 41 38 25 71 -21 42 -98 36 -113 -9 -9 -25 -10 -20 -16 36 -6 59
-19 91 -36 91 -4 0 -15 -6 -25 -13z m32 -54 c-1 -10 4 -36 10 -59 11 -38 9
-120 -2 -132 -3 -3 -7 -1 -7 4 -15 102 -19 204 -10 204 5 0 9 -8 9 -17z m132
-73 c0 -11 -2 -20 -5 -20 -3 0 -14 9 -25 20 -20 20 -20 20 5 20 18 0 25 -5 25
-20z m-30 -29 c0 -11 -40 -22 -52 -15 -5 3 -6 10 -3 15 8 12 55 12 55 0z m50
-71 c0 -5 -7 -7 -15 -4 -8 4 -12 10 -9 15 6 11 24 2 24 -11z"/>
<path d="M1540 2985 c-19 -23 -8 -50 22 -53 35 -4 56 29 32 52 -19 20 -38 20
-54 1z"/>
<path d="M1773 2958 c-14 -18 -53 -225 -47 -243 8 -21 44 -29 60 -14 7 8 23
65 35 126 18 91 19 115 9 128 -15 18 -44 20 -57 3z m37 -25 c0 -5 -7 -52 -17
-105 -11 -67 -21 -98 -30 -98 -9 0 -12 8 -9 23 9 41 36 179 36 183 0 8 20 4
20 -3z"/>
<path d="M1535 2908 c-2 -7 -5 -48 -8 -91 -3 -55 0 -80 9 -88 20 -17 47 -6 55
21 12 42 10 145 -3 158 -16 16 -48 15 -53 0z m31 -146 c-11 -10 -12 3 -6 68
l5 65 3 -64 c2 -35 1 -66 -2 -69z"/>
<path d="M1151 2867 c-11 -14 2 -76 31 -149 12 -31 54 -39 64 -13 7 17 -24
143 -39 163 -12 16 -42 15 -56 -1z m52 -72 c21 -70 22 -81 2 -65 -9 7 -14 15
-11 17 2 2 -2 26 -9 54 -18 67 -3 62 18 -6z"/>
<path d="M1891 2846 c-6 -7 -22 -45 -36 -85 -21 -64 -22 -72 -8 -86 26 -26 47
-13 67 43 13 37 24 52 37 52 23 0 24 -14 4 -70 -17 -49 -8 -70 30 -70 20 0 27
10 45 65 26 79 23 105 -13 125 -27 14 -29 14 -54 -14 l-25 -30 6 31 c6 26 3
34 -13 42 -25 14 -26 14 -40 -3z m13 -83 c-19 -52 -34 -76 -34 -52 0 16 21 78
34 97 17 27 17 1 0 -45z m109 -17 c-1 -20 -10 -48 -18 -64 l-16 -27 7 35 c4
19 7 50 6 68 0 22 3 32 11 29 7 -2 11 -20 10 -41z"/>
<path d="M1041 2836 c-10 -12 -9 -27 4 -75 25 -88 58 -116 106 -91 26 14 26
60 0 60 -14 0 -23 14 -37 58 -20 60 -48 79 -73 48z m45 -51 c3 -19 15 -46 26
-60 19 -24 19 -25 1 -25 -15 0 -24 14 -36 53 -20 62 -20 67 -7 67 5 0 12 -16
16 -35z"/>
<path d="M885 2784 c-64 -35 -84 -76 -50 -104 14 -12 70 -9 109 6 9 3 16 1 16
-5 0 -6 -21 -17 -47 -24 -50 -15 -65 -36 -43 -62 18 -21 66 -18 110 6 44 25
61 54 49 87 -12 31 -31 36 -89 22 -28 -7 -54 -10 -57 -7 -6 7 29 23 70 32 24
5 28 10 25 33 -2 22 -9 27 -33 29 -16 2 -43 -5 -60 -13z m-12 -58 c-10 -13
-20 -20 -21 -15 -5 12 17 39 30 39 5 0 1 -11 -9 -24z m127 -65 c0 -21 -54 -51
-91 -51 -26 0 -18 12 12 17 11 2 32 14 47 28 32 30 32 30 32 6z"/>
<path d="M2171 2781 c-7 -13 -18 -17 -35 -14 -18 4 -26 0 -31 -17 -5 -16 -2
-26 9 -32 14 -8 14 -13 -4 -48 -11 -22 -20 -50 -20 -64 0 -38 37 -68 80 -64
32 3 35 6 35 33 0 23 -5 31 -22 33 -27 4 -27 5 -7 43 14 29 17 30 33 15 22
-20 26 -20 45 0 18 18 5 54 -19 54 -18 0 -19 5 -3 29 9 15 9 23 -1 35 -18 22
-48 20 -60 -3z m30 -35 c-7 -17 -5 -28 7 -40 16 -16 16 -17 -1 -10 -19 7 -40
-11 -65 -54 -11 -20 -9 -25 13 -48 25 -25 25 -25 4 -22 -35 5 -46 32 -30 70 8
18 15 48 15 66 1 24 6 32 19 32 10 0 20 7 23 15 4 8 10 15 15 15 5 0 5 -10 0
-24z"/>
<path d="M625 2696 c-16 -11 -17 -18 -8 -37 7 -17 7 -29 0 -40 -16 -26 -1 -52
28 -47 19 4 30 -2 50 -28 37 -48 60 -58 96 -43 49 20 67 79 30 99 -16 8 -23 6
-36 -12 l-16 -23 -24 30 c-24 29 -24 30 -5 37 24 9 27 53 4 62 -21 8 -20 8
-39 -10 -15 -15 -17 -15 -31 5 -18 25 -24 26 -49 7z m78 -39 c26 0 27 -1 11
-18 -20 -22 -11 -52 23 -79 20 -15 29 -17 45 -9 27 14 38 1 14 -17 -28 -20
-31 -19 -80 26 -24 22 -50 40 -58 40 -10 0 -14 11 -14 35 1 28 4 34 16 28 8
-4 27 -6 43 -6z"/>
<path d="M2280 2593 c-20 -18 -33 -41 -37 -65 -5 -33 -2 -41 29 -72 44 -44 86
-56 105 -31 21 30 16 43 -27 70 -22 14 -40 32 -40 41 0 12 9 9 38 -13 54 -43
61 -46 77 -33 27 22 18 75 -16 104 -42 35 -89 35 -129 -1z m23 -30 c-26 -9
-13 -51 23 -81 21 -18 31 -32 25 -36 -24 -15 -81 39 -81 78 0 22 30 60 39 50
3 -4 0 -9 -6 -11z m106 -17 c0 -14 -2 -16 -6 -6 -3 8 -10 21 -16 28 -7 9 -6
11 7 6 9 -3 16 -16 15 -28z m-39 -1 c21 -25 1 -31 -22 -7 -18 18 -19 22 -6 22
8 0 21 -7 28 -15z"/>
<path d="M488 2503 c-14 -16 -28 -37 -32 -47 -10 -29 12 -83 44 -106 43 -31
86 -26 126 14 37 37 42 62 19 106 -34 65 -112 81 -157 33z m33 -32 c-14 -16
-28 -25 -30 -19 -4 12 29 48 44 48 7 0 1 -13 -14 -29z m69 -8 c0 -20 -48 -73
-67 -73 -22 0 -15 32 14 62 30 32 53 36 53 11z m15 -80 c-14 -13 -35 -23 -45
-23 -15 0 -10 9 23 45 39 42 42 43 45 23 3 -15 -5 -30 -23 -45z"/>
<path d="M2438 2436 c-59 -55 -67 -73 -46 -94 21 -21 41 -13 84 29 l43 42 15
-37 c16 -37 41 -47 64 -24 34 34 -6 90 -48 68 -23 -12 -25 -8 -8 19 9 15 9 23
-1 35 -22 26 -43 18 -103 -38z m82 17 c0 -5 -23 -27 -50 -51 -60 -52 -67 -36
-9 19 40 37 59 48 59 32z"/>
<path d="M296 2411 c-14 -15 -15 -24 -6 -40 13 -26 32 -27 53 -3 22 24 21 39
-2 52 -25 13 -25 13 -45 -9z"/>
<path d="M362 2368 c-24 -24 -11 -46 54 -97 54 -41 69 -49 85 -40 34 18 22 46
-43 98 -67 54 -77 58 -96 39z m88 -68 c25 -21 40 -39 34 -40 -5 0 -19 8 -30
19 -11 10 -30 24 -42 30 -21 11 -30 31 -14 31 4 0 27 -18 52 -40z"/>
<path d="M2690 2365 c-10 -12 -10 -21 -2 -40 13 -29 34 -32 57 -9 14 14 14 19
2 38 -18 27 -40 31 -57 11z"/>
<path d="M2582 2285 c-71 -52 -82 -69 -58 -93 15 -15 19 -15 49 1 18 10 53 35
76 55 40 34 43 40 32 60 -6 12 -17 22 -24 22 -7 0 -41 -20 -75 -45z m62 1 c-5
-14 -19 -25 -81 -63 -36 -22 -20 -4 37 41 52 41 51 41 44 22z"/>
<path d="M287 2252 c-22 -24 -22 -68 1 -81 9 -6 13 -11 9 -11 -5 0 -34 14 -66
32 -63 35 -91 33 -91 -5 0 -20 18 -35 107 -86 113 -66 146 -73 151 -31 2 20
-6 30 -43 52 -45 28 -60 58 -27 58 9 0 31 -9 47 -20 40 -27 72 -26 81 2 8 25
-14 47 -88 84 -57 29 -60 29 -81 6z m73 -32 c0 -5 6 -10 14 -10 16 0 66 -39
51 -40 -6 0 -28 9 -50 20 -23 12 -48 17 -62 14 -18 -5 -22 -3 -17 10 7 17 64
23 64 6z m-127 -58 c88 -48 127 -74 127 -83 0 -14 -3 -12 -91 41 -45 28 -86
50 -91 50 -4 0 -8 5 -8 10 0 14 5 13 63 -18z"/>
<path d="M1445 2048 c3 -113 1 -146 -5 -108 -4 30 -8 97 -9 148 -1 90 -1 92
-25 92 -24 0 -24 -1 -21 -82 l4 -83 -10 62 c-12 73 -19 73 -86 0 -48 -52 -78
-107 -88 -159 -6 -31 -13 -38 -51 -53 -24 -9 -44 -23 -44 -31 0 -14 49 -44 74
-44 10 0 16 -16 21 -57 20 -173 92 -305 197 -357 181 -90 361 72 393 357 5 41
11 57 21 57 24 0 74 29 74 44 0 13 -28 30 -67 41 -15 4 -23 14 -23 28 0 46
-56 142 -114 195 -32 28 -62 52 -67 52 -5 0 -9 -29 -9 -65 0 -36 -4 -65 -10
-65 -6 0 -7 31 -3 80 6 77 5 80 -16 80 -19 0 -21 -6 -22 -52 -1 -29 -5 -96 -9
-148 -7 -85 -8 -78 -6 68 l1 162 -52 0 -51 0 3 -162z m71 -11 c0 -150 10 -183
45 -151 10 9 16 21 13 25 -9 14 7 99 18 93 18 -11 38 19 38 57 0 45 8 48 47
15 34 -29 77 -104 93 -164 8 -31 20 -48 41 -60 33 -19 37 -32 10 -32 -10 0
-24 -7 -31 -15 -16 -19 -39 -19 -64 0 -15 11 -63 14 -232 15 -227 0 -244 -4
-244 -51 0 -10 -4 -19 -10 -19 -5 0 -10 8 -10 17 0 23 -29 53 -52 53 -26 0
-22 13 12 32 17 10 32 28 35 45 11 49 47 122 80 158 35 40 45 43 45 15 0 -34
23 -72 41 -67 14 4 17 -6 22 -55 6 -70 19 -90 43 -66 13 13 16 40 15 157 l-2
141 23 -3 c23 -4 23 -6 24 -140z m204 -279 l1 -33 20 24 c11 13 21 22 23 20 9
-11 -25 -154 -49 -207 -43 -97 -137 -172 -215 -172 -103 0 -206 108 -245 257
-19 74 -19 76 6 68 21 -7 22 -5 16 34 l-5 41 224 0 224 0 0 -32z"/>
<path d="M2638 2184 c-51 -27 -63 -85 -28 -141 32 -53 91 -56 149 -7 25 21 31
33 31 66 0 78 -80 122 -152 82z m122 -73 c0 -24 -1 -23 -20 12 -11 20 -20 40
-20 44 0 3 9 -2 20 -12 11 -10 20 -30 20 -44z m-51 15 c26 -41 27 -69 4 -64
-22 4 -57 64 -49 83 9 24 23 18 45 -19z m-32 -74 c18 -18 11 -26 -16 -17 -26
8 -48 52 -43 85 4 24 5 23 24 -14 11 -22 27 -46 35 -54z"/>
<path d="M102 2058 c-47 -60 -59 -150 -22 -180 42 -34 77 -17 136 67 12 17 25
26 32 21 14 -8 2 -37 -30 -72 -12 -14 -18 -33 -16 -50 3 -26 7 -29 37 -29 48
0 92 55 99 125 5 55 -6 76 -46 91 -38 14 -59 2 -103 -58 -28 -37 -44 -52 -51
-45 -7 7 -1 26 18 60 16 28 25 56 21 65 -8 20 -60 23 -75 5z m48 -24 c0 -4
-10 -22 -22 -42 -18 -30 -20 -39 -10 -65 13 -35 11 -40 -12 -31 -34 13 -8 144
29 144 8 0 15 -3 15 -6z m158 -84 c2 -35 -2 -50 -18 -67 -11 -12 -20 -27 -20
-33 0 -5 -9 -10 -20 -10 -26 0 -25 13 5 58 30 43 31 59 8 85 -17 18 -17 19 12
15 28 -3 30 -6 33 -48z"/>
<path d="M2738 1973 c-57 -21 -68 -29 -68 -48 0 -41 22 -48 81 -26 28 11 56
18 60 15 5 -3 6 -17 3 -32 -8 -39 17 -59 51 -44 14 7 25 20 25 31 0 24 -25 51
-48 51 -15 1 -15 2 1 11 31 18 14 71 -22 68 -9 -1 -46 -13 -83 -26z m90 -15
c-4 -11 -15 -15 -66 -22 -12 -1 -25 -6 -29 -9 -3 -4 -13 -7 -21 -7 -25 0 -6
11 50 31 64 21 71 22 66 7z"/>
<path d="M71 1539 c-26 -25 -31 -39 -31 -76 0 -38 5 -50 34 -79 40 -40 83 -45
132 -15 95 58 52 201 -61 201 -35 0 -49 -6 -74 -31z m137 -22 c49 -45 9 -137
-61 -137 -23 0 -41 8 -57 25 -13 14 -20 25 -16 25 4 0 3 8 -2 17 -24 41 37
108 88 96 14 -3 35 -15 48 -26z"/>
<path d="M2781 1544 c-79 -66 -28 -194 78 -194 24 0 42 9 67 34 29 29 34 41
34 79 0 95 -106 143 -179 81z m126 -14 c6 0 30 -56 28 -65 -2 -5 -6 -21 -9
-35 -3 -17 -18 -32 -41 -43 -32 -15 -39 -16 -65 -2 -54 28 -68 95 -27 132 29
27 46 32 82 21 16 -4 31 -8 32 -8z"/>
<path d="M1200 1383 c-165 -42 -279 -184 -288 -358 -3 -70 -1 -86 20 -125 51
-94 132 -110 568 -110 436 0 517 16 568 110 21 39 23 55 20 125 -9 178 -133
326 -305 363 -40 9 -42 9 -54 -20 -15 -38 -76 -133 -143 -223 l-51 -69 -5 79
c-4 58 -2 82 8 88 6 4 19 21 27 38 l16 30 -28 -8 c-36 -10 -80 -10 -115 0 -35
9 -36 -3 -2 -42 24 -29 25 -34 17 -108 l-8 -78 -65 100 c-35 55 -78 127 -95
161 l-31 61 -54 -14z m59 -55 c23 -50 130 -220 158 -250 24 -25 27 -26 42 -11
18 18 31 140 19 172 -5 13 -2 20 10 23 15 4 17 -6 17 -83 0 -72 3 -92 18 -106
18 -17 20 -16 56 24 21 23 66 84 99 135 34 51 68 102 76 113 13 19 15 19 67 2
151 -49 247 -192 237 -356 -5 -87 -28 -121 -100 -146 -46 -16 -97 -19 -402
-22 -564 -7 -616 10 -616 198 0 62 5 82 35 145 40 84 95 136 178 171 73 31 89
29 106 -9z"/>
<path d="M1692 1064 c-19 -13 -22 -24 -22 -85 0 -99 12 -109 133 -109 85 0 96
2 115 23 18 19 22 35 22 83 0 95 -11 104 -128 104 -72 0 -103 -4 -120 -16z
m216 -86 l-3 -73 -100 0 -100 0 -3 73 -3 72 106 0 106 0 -3 -72z"/>
<path d="M1740 1002 c0 -4 9 -8 19 -8 11 0 17 4 15 8 -7 10 -34 10 -34 0z"/>
<path d="M1825 990 c-4 -6 7 -10 24 -10 17 0 31 5 31 10 0 6 -11 10 -24 10
-14 0 -28 -4 -31 -10z"/>
<path d="M1726 963 c-14 -15 -3 -23 30 -23 22 0 34 4 32 11 -4 13 -52 21 -62
12z"/>
<path d="M1823 943 c10 -9 57 -10 57 -1 0 4 -14 8 -32 8 -17 0 -28 -3 -25 -7z"/>
<path d="M282 1114 c-19 -13 -22 -24 -22 -90 0 -41 -4 -74 -10 -74 -16 0 -30
36 -30 77 0 60 -38 83 -73 45 -34 -38 -6 -166 41 -191 32 -17 70 -13 93 10 18
18 20 30 17 87 -2 45 1 67 9 69 7 3 15 -8 18 -24 16 -78 21 -88 42 -91 14 -2
27 5 38 22 15 23 15 29 1 80 -24 82 -74 115 -124 80z m67 -33 c22 -22 43 -85
34 -107 -8 -22 -23 -6 -23 24 0 35 -26 72 -51 72 -21 0 -26 16 -6 23 21 9 26
8 46 -12z m-153 -57 c2 -57 4 -63 25 -83 12 -11 28 -17 38 -13 14 5 14 4 2
-11 -20 -25 -58 -21 -77 8 -18 28 -30 96 -20 120 9 26 31 12 32 -21z"/>
<path d="M359 907 c-133 -74 -149 -85 -149 -106 0 -37 30 -42 83 -14 35 20 50
24 59 15 15 -15 0 -32 -47 -57 -48 -27 -57 -64 -18 -79 23 -9 143 64 149 90
10 38 -12 64 -54 64 l-37 1 56 29 c73 37 83 50 63 78 -8 12 -18 22 -22 21 -4
0 -41 -19 -83 -42z m81 3 c0 -8 -87 -65 -100 -65 -3 0 -22 -11 -43 -23 -20
-13 -43 -22 -50 -19 -7 3 -5 7 8 12 11 5 27 14 35 21 13 10 140 83 148 84 1 0
2 -4 2 -10z m-30 -132 c0 -22 -13 -35 -58 -57 -54 -27 -63 -23 -19 9 17 13 38
32 45 42 15 21 32 24 32 6z"/>
<path d="M2548 765 c-9 -19 -9 -28 0 -37 19 -19 14 -25 -17 -20 -23 3 -30 -1
-36 -17 -9 -28 -4 -33 71 -87 63 -45 65 -46 84 -29 30 27 25 40 -30 80 -53 39
-54 41 -18 59 29 14 34 39 13 60 -24 24 -54 20 -67 -9z m42 -15 c0 -5 -5 -10
-11 -10 -5 0 -7 5 -4 10 3 6 8 10 11 10 2 0 4 -4 4 -10z m-15 -94 c6 -6 23
-20 40 -30 17 -11 24 -21 17 -24 -11 -3 -112 63 -112 75 0 8 45 -8 55 -21z"/>
<path d="M502 768 c-28 -28 -1 -75 38 -63 33 11 21 75 -15 75 -6 0 -16 -5 -23
-12z"/>
<path d="M389 682 c-65 -49 -79 -75 -47 -95 13 -8 28 -2 72 28 78 54 90 68 76
94 -16 30 -30 27 -101 -27z m61 -7 c-16 -19 -80 -59 -85 -53 -6 5 76 68 88 68
5 0 4 -7 -3 -15z"/>
<path d="M474 630 c-65 -26 -83 -109 -35 -162 42 -47 91 -45 137 5 46 49 46
87 0 133 -34 34 -61 41 -102 24z m104 -68 c24 -37 -1 -25 -33 16 -27 34 -27
36 -5 21 13 -8 30 -25 38 -37z m-48 -8 c23 -27 29 -39 20 -48 -13 -13 -36 0
-63 36 -18 24 -17 48 3 48 4 0 22 -16 40 -36z m-28 -64 c4 0 8 -4 8 -10 0 -16
-32 -12 -52 7 -10 9 -18 30 -18 47 l0 31 27 -38 c14 -20 30 -37 35 -37z"/>
<path d="M2444 620 c-34 -14 -64 -59 -64 -97 0 -26 8 -43 34 -69 46 -46 86
-46 132 0 45 45 46 84 2 131 -36 37 -71 49 -104 35z m26 -24 c0 -6 -49 -56
-55 -56 -12 0 -4 21 17 40 19 18 38 26 38 16z m45 -35 c6 -11 -51 -81 -66 -81
-24 0 -20 33 7 61 28 30 48 36 59 20z m10 -88 c-14 -13 -35 -23 -46 -23 -15 0
-12 7 21 40 22 22 41 46 41 53 1 6 4 -1 6 -18 4 -23 -1 -35 -22 -52z"/>
<path d="M2258 559 c-22 -12 -23 -42 -2 -60 31 -26 70 25 44 56 -14 17 -19 18
-42 4z"/>
<path d="M700 526 c-7 -10 -21 -14 -34 -10 -31 7 -54 -20 -36 -41 11 -13 9
-21 -9 -45 -47 -65 -45 -107 9 -135 29 -15 33 -15 56 0 30 19 28 49 -4 53 -27
4 -28 13 -3 43 16 19 22 22 32 12 18 -18 44 -16 59 3 11 13 10 19 -8 36 -17
17 -18 24 -9 39 23 36 -26 77 -53 45z m24 -50 c-3 -13 -1 -27 5 -30 21 -13 12
-27 -10 -16 -15 9 -24 8 -37 -2 -45 -35 -52 -61 -25 -91 17 -18 17 -19 -7 -16
-37 6 -39 55 -5 94 18 21 24 37 20 54 -5 17 -2 22 8 18 8 -3 20 -1 28 4 23 14
30 10 23 -15z"/>
<path d="M2302 488 c-19 -19 -16 -26 39 -94 53 -66 80 -79 98 -45 9 16 1 31
-40 85 -51 65 -73 78 -97 54z m67 -60 c22 -24 36 -45 30 -47 -10 -3 -78 67
-79 82 0 13 8 7 49 -35z"/>
<path d="M2230 435 c-7 -8 -10 -25 -6 -40 5 -20 13 -25 36 -25 38 0 55 28 34
58 -18 25 -46 28 -64 7z"/>
<path d="M2162 388 c-19 -19 -14 -38 29 -105 41 -62 63 -75 87 -51 20 20 14
40 -31 103 -44 62 -64 74 -85 53z m67 -74 c18 -30 31 -58 28 -61 -7 -6 -76 88
-77 105 0 25 16 10 49 -44z"/>
<path d="M782 378 c-21 -21 -13 -51 25 -90 46 -47 39 -58 -10 -17 -39 32 -63
35 -80 8 -15 -24 13 -64 63 -89 47 -24 73 -25 94 -4 27 26 19 59 -24 98 -22
20 -40 38 -40 41 0 13 22 2 53 -25 41 -35 53 -37 67 -10 14 26 -3 52 -51 79
-41 24 -79 27 -97 9z m118 -61 c0 -4 -9 -3 -20 3 -11 6 -20 15 -20 20 0 6 9 5
20 -2 11 -7 20 -16 20 -21z m-123 -61 c12 -20 50 -37 69 -29 12 4 15 2 12 -8
-11 -29 -103 2 -116 39 -5 17 25 15 35 -2z"/>
<path d="M1162 323 c-15 -31 -55 -241 -49 -257 4 -9 18 -16 31 -16 21 0 27 7
36 41 14 50 31 46 47 -11 7 -24 18 -47 25 -52 22 -13 47 -9 58 11 14 26 3 50
-29 64 l-26 11 30 4 c33 4 45 17 45 48 0 51 -84 75 -114 32 -20 -28 -20 -18
-1 52 8 30 15 56 15 57 0 1 -7 9 -16 17 -20 21 -41 20 -52 -1z m31 -55 c-4 -7
-9 -35 -10 -63 -2 -51 -43 -152 -43 -107 0 19 23 126 36 170 2 6 8 12 14 12 7
0 8 -5 3 -12z m103 -93 c12 -30 -2 -35 -25 -11 l-24 26 22 0 c12 0 24 -7 27
-15z m-41 -26 c4 -6 5 -13 2 -15 -7 -8 -57 7 -57 17 0 13 47 11 55 -2z m25
-90 c0 -6 -4 -7 -10 -4 -5 3 -10 11 -10 16 0 6 5 7 10 4 6 -3 10 -11 10 -16z"/>
<path d="M2036 319 c-37 -29 -47 -59 -35 -103 18 -67 85 -94 149 -61 47 25 62
62 34 90 -15 14 -20 14 -61 -11 -29 -17 -48 -23 -55 -16 -6 6 8 18 39 33 52
26 63 47 38 73 -23 23 -77 20 -109 -5z m41 -15 c-3 -3 -12 -4 -19 -1 -8 3 -5
6 6 6 11 1 17 -2 13 -5z m33 -32 c0 -12 -51 -34 -59 -27 -7 8 28 35 46 35 7 0
13 -4 13 -8z m-28 -82 c9 0 30 8 47 17 16 10 33 14 37 10 11 -11 -17 -36 -54
-46 -25 -8 -36 -6 -57 11 -14 10 -25 24 -25 30 0 6 8 4 18 -5 10 -10 26 -17
34 -17z"/>
<path d="M1836 307 c-14 -10 -17 -21 -12 -40 5 -20 3 -27 -8 -27 -22 0 -28
-17 -16 -40 7 -14 17 -19 29 -15 15 4 21 -3 30 -39 18 -72 72 -96 125 -55 29
23 34 50 10 70 -13 10 -19 10 -36 0 -22 -14 -32 -8 -42 25 -5 17 -2 23 19 28
21 5 26 12 23 34 -3 23 -7 27 -34 26 -22 -1 -33 4 -40 19 -12 27 -25 31 -48
14z m59 -111 c1 -50 25 -80 58 -70 9 3 17 1 17 -4 0 -15 -41 -22 -61 -12 -9 6
-20 23 -24 39 -7 33 -38 74 -49 64 -3 -3 -6 -1 -6 5 0 7 5 12 10 12 6 0 10 12
10 27 l0 27 22 -21 c16 -16 22 -35 23 -67z"/>
<path d="M939 263 c-31 -72 -35 -110 -14 -133 21 -24 63 -26 71 -5 10 24 20
17 19 -12 0 -23 5 -29 27 -31 24 -3 28 2 58 78 25 66 29 85 19 96 -24 29 -52
12 -75 -46 -12 -30 -27 -56 -34 -58 -24 -8 -27 21 -7 70 23 55 16 81 -22 86
-17 3 -25 -6 -42 -45z m36 -37 c-10 -25 -15 -55 -12 -66 3 -13 1 -20 -5 -18
-23 8 -13 90 15 126 18 23 19 4 2 -42z m104 -54 c-23 -54 -39 -74 -39 -49 0
24 42 107 51 101 5 -2 -1 -26 -12 -52z"/>
<path d="M1370 275 c-20 -25 -8 -50 25 -50 36 0 47 31 19 52 -23 17 -29 16
-44 -2z"/>
<path d="M1517 273 c-4 -3 -7 -62 -7 -129 0 -113 2 -124 20 -134 14 -8 26 -8
40 0 18 10 20 21 20 115 0 121 -9 155 -43 155 -13 0 -27 -3 -30 -7z m40 -102
c0 -38 2 -73 5 -77 2 -5 4 -16 3 -24 -1 -8 -3 -24 -3 -35 -1 -12 -5 -15 -11
-10 -9 9 -17 114 -11 140 1 6 1 27 0 49 -1 21 2 36 8 33 5 -4 9 -37 9 -76z"/>
<path d="M1702 208 c-7 -7 -12 -20 -12 -30 0 -26 -18 -22 -22 5 -2 14 -11 23
-25 25 -34 5 -42 -23 -29 -107 11 -77 28 -100 61 -87 15 6 17 15 12 67 -6 49
-4 61 9 66 20 7 34 -13 34 -50 0 -16 5 -37 10 -48 13 -24 57 -25 64 -1 7 21
-9 124 -24 152 -12 23 -58 28 -78 8z m60 -35 c0 -10 1 -24 1 -30 -1 -7 3 -13
8 -13 5 0 9 -4 9 -10 0 -19 -21 -10 -30 14 -5 13 -14 27 -19 31 -18 10 -12 25
9 25 12 0 21 -7 22 -17z m-105 -66 c2 -31 -1 -57 -5 -57 -4 0 -8 8 -8 18 0 9
-4 36 -7 60 -5 32 -3 42 6 39 7 -2 13 -27 14 -60z m123 -17 c0 -5 -4 -10 -10
-10 -5 0 -10 5 -10 10 0 6 5 10 10 10 6 0 10 -4 10 -10z"/>
<path d="M1355 188 c-3 -7 -6 -49 -7 -93 l-3 -80 30 0 c30 0 30 0 39 77 5 42
6 83 3 92 -7 19 -56 22 -62 4z m30 -116 c-11 -58 -18 -27 -9 40 7 50 9 56 12
29 2 -19 1 -50 -3 -69z"/>
</g>
</svg>
