<?xml version="1.0" standalone="no"?>
<!DOCTYPE svg PUBLIC "-//W3C//DTD SVG 20010904//EN"
 "http://www.w3.org/TR/2001/REC-SVG-20010904/DTD/svg10.dtd">
<svg version="1.0" xmlns="http://www.w3.org/2000/svg"
 width="300.000000pt" height="129.000000pt" viewBox="0 0 300.000000 129.000000"
 preserveAspectRatio="xMidYMid meet">
<metadata>
Created by potrace 1.10, written by Peter Selinger 2001-2011
</metadata>
<g transform="translate(0.000000,129.000000) scale(0.100000,-0.100000)"
fill="#a1a1a1" stroke="none">
<path d="M1142 1278 c-18 -18 -17 -577 1 -583 6 -2 49 -5 95 -7 59 -2 82 0 82
9 0 8 -21 13 -57 16 l-58 3 58 2 c73 3 75 22 2 22 -35 0 -55 4 -55 11 0 8 17
10 55 6 44 -4 55 -3 55 9 0 11 -11 13 -55 8 -36 -3 -55 -2 -55 5 0 7 23 11 55
11 30 0 55 5 55 10 0 6 -25 10 -55 10 -30 0 -55 3 -55 8 0 4 25 5 55 4 35 -3
55 0 55 7 0 7 -22 11 -55 11 -30 0 -55 5 -55 10 0 6 25 10 55 10 73 0 71 18
-2 23 l-58 3 58 2 c73 3 75 22 2 22 -30 0 -55 5 -55 10 0 6 25 10 55 10 73 0
71 18 -2 23 l-58 3 58 2 c73 3 75 22 2 22 -30 0 -55 5 -55 10 0 6 25 10 55 10
73 0 71 18 -2 23 l-58 3 58 2 c73 3 75 22 2 22 -34 0 -55 4 -55 11 0 8 17 10
55 5 43 -5 55 -3 55 7 0 10 -13 13 -55 9 -37 -3 -55 -1 -55 7 0 7 21 11 55 11
30 0 55 5 55 10 0 6 -25 10 -55 10 -30 0 -55 3 -55 8 0 4 25 5 55 4 35 -3 55
0 55 7 0 7 -22 11 -55 11 -30 0 -55 5 -55 10 0 6 25 10 55 10 73 0 71 18 -2
23 l-58 3 58 2 c73 3 75 22 2 22 -30 0 -55 5 -55 10 0 6 25 10 55 10 73 0 71
18 -2 23 l-58 3 58 2 c31 1 57 7 57 12 0 15 -107 13 -116 -2 -5 -7 -8 -136 -8
-288 -1 -268 -1 -275 -21 -275 -20 0 -20 6 -19 270 0 149 4 278 8 288 9 20 -4
23 -22 5z"/>
<path d="M1446 1274 c-19 -18 -10 -38 78 -174 l54 -85 -23 -40 c-19 -30 -31
-40 -53 -41 -126 -6 -168 -193 -54 -241 96 -40 197 66 162 171 -9 29 -9 39 4
57 l15 22 12 -25 c8 -19 8 -31 0 -46 -41 -77 28 -182 121 -182 84 0 134 100
90 179 -20 38 -73 71 -112 71 -18 0 -31 10 -46 38 l-22 37 71 119 c56 93 69
121 60 134 -5 10 -21 17 -34 17 -24 0 -42 -22 -115 -145 l-30 -51 -55 87 c-75
121 -89 133 -123 98z m38 -10 c9 -3 16 -10 16 -15 0 -4 10 -23 23 -42 12 -19
33 -52 47 -74 28 -46 51 -65 67 -55 6 4 35 47 65 96 53 88 78 114 78 82 0 -15
-33 -76 -92 -168 -24 -38 -33 -46 -46 -39 -10 6 -23 6 -34 0 -14 -8 -24 1 -56
48 -53 79 -92 147 -92 161 0 14 2 14 24 6z m158 -266 c-17 -17 -47 9 -30 29
10 12 13 12 27 -1 11 -12 12 -19 3 -28z m4 -17 c14 11 18 11 22 1 2 -7 15 -26
29 -42 l25 -30 -32 -31 -31 -32 6 34 c5 28 2 38 -18 57 l-23 22 -23 -24 c-16
-17 -22 -33 -19 -50 6 -31 1 -32 -28 -5 l-22 21 29 44 c26 38 32 42 49 32 14
-9 22 -9 36 3z m-97 -127 c12 -15 21 -34 21 -44 0 -34 -39 -70 -75 -70 -62 0
-86 70 -40 115 32 33 68 32 94 -1z m251 4 c40 -44 12 -118 -45 -118 -32 0 -75
41 -75 72 0 63 76 93 120 46z m-369 -115 c13 -16 12 -17 -3 -4 -17 13 -22 21
-14 21 2 0 10 -8 17 -17z m389 -8 c-7 -9 -15 -13 -17 -11 -6 6 20 36 26 30 2
-2 -2 -10 -9 -19z"/>
<path d="M580 710 c0 -19 7 -20 245 -20 238 0 245 1 245 20 0 19 -7 20 -245
20 -238 0 -245 -1 -245 -20z"/>
<path d="M1930 710 c0 -19 7 -20 245 -20 238 0 245 1 245 20 0 19 -7 20 -245
20 -238 0 -245 -1 -245 -20z"/>
<path d="M4 569 c-3 -6 -2 -15 3 -20 5 -5 606 -8 1499 -7 1316 3 1489 5 1489
18 0 13 -174 15 -1492 18 -1069 1 -1494 -1 -1499 -9z"/>
<path d="M1478 433 c-31 -5 -39 -23 -10 -23 15 0 17 -13 17 -140 0 -102 -3
-140 -12 -140 -6 0 -14 -4 -17 -9 -4 -5 19 -11 49 -13 39 -2 55 1 55 10 0 6
-7 12 -15 12 -13 0 -15 24 -15 155 0 118 -3 155 -12 154 -7 -1 -25 -4 -40 -6z"/>
<path d="M2368 433 c-32 -5 -38 -23 -8 -23 19 0 20 -7 20 -149 l0 -149 31 -6
c53 -10 83 -7 115 13 87 53 57 211 -40 211 -19 0 -38 -4 -41 -10 -16 -25 -25
-5 -25 55 0 46 -4 65 -12 64 -7 -1 -25 -4 -40 -6z m152 -163 c25 -47 4 -136
-36 -146 -53 -13 -59 -5 -59 81 0 74 2 80 24 92 28 13 55 4 71 -27z"/>
<path d="M70 413 c-31 -12 -60 -47 -60 -73 0 -37 23 -65 75 -89 51 -24 85 -54
85 -75 0 -28 -30 -46 -76 -46 -41 0 -45 2 -51 30 -3 17 -9 30 -14 30 -9 0 -24
-68 -16 -76 3 -3 32 -8 64 -11 50 -4 63 -2 93 19 26 17 36 32 38 55 5 46 -12
70 -71 99 -64 32 -87 52 -87 75 0 25 38 49 77 49 31 0 33 -2 33 -36 0 -24 4
-34 12 -32 15 5 34 65 24 75 -8 9 -107 14 -126 6z"/>
<path d="M1684 409 c-2 -4 5 -9 16 -12 19 -5 20 -14 20 -135 0 -125 -1 -130
-22 -138 -16 -5 7 -9 69 -11 99 -4 123 3 149 42 26 40 10 83 -40 106 -30 14
-35 19 -19 19 27 0 56 40 51 71 -6 40 -45 57 -136 61 -46 2 -86 0 -88 -3z
m164 -31 c17 -17 15 -64 -4 -82 -8 -9 -30 -16 -47 -16 l-32 0 0 55 0 55 36 0
c19 0 40 -5 47 -12z m19 -144 c17 -24 16 -55 -3 -82 -11 -17 -25 -22 -57 -22
l-42 0 0 66 0 66 44 -5 c27 -3 50 -12 58 -23z"/>
<path d="M952 345 c-6 -14 -18 -25 -27 -25 -8 0 -15 -4 -15 -10 0 -5 8 -10 18
-10 15 0 17 -9 14 -75 -5 -105 21 -142 82 -119 24 9 19 24 -6 21 -22 -2 -23 2
-28 86 -5 84 -4 87 17 87 12 0 25 5 28 10 4 6 -7 10 -25 10 -27 0 -30 2 -24
25 4 18 2 25 -8 25 -8 0 -20 -11 -26 -25z"/>
<path d="M336 325 c-33 -18 -39 -19 -31 -5 7 11 -18 13 -52 4 -27 -7 -31 -24
-5 -24 15 0 17 -13 17 -137 0 -128 -1 -139 -20 -147 -18 -8 -19 -9 -2 -13 10
-3 24 0 31 6 9 7 16 7 23 0 6 -6 21 -9 34 -6 24 4 24 5 2 12 -16 5 -22 16 -25
50 l-3 43 32 -5 c72 -12 123 37 123 117 0 55 -23 95 -61 109 -38 13 -28 14
-63 -4z m57 -33 c24 -26 31 -75 17 -116 -13 -42 -41 -60 -76 -52 -23 6 -24 10
-24 86 0 65 3 81 18 89 26 15 47 13 65 -7z"/>
<path d="M783 324 c-21 -8 -39 -14 -40 -14 -10 0 -33 -65 -33 -90 0 -91 103
-152 167 -99 24 20 14 28 -19 15 -61 -25 -98 8 -98 86 0 59 22 88 66 88 30 0
34 -3 34 -25 0 -16 6 -25 16 -25 11 0 14 8 12 32 -3 27 -8 33 -35 39 -17 3
-48 0 -70 -7z"/>
<path d="M1295 332 c-25 -6 -31 -13 -33 -40 -2 -24 1 -32 12 -32 10 0 16 9 16
25 0 14 4 25 9 25 5 0 16 3 24 6 21 8 47 -23 47 -55 0 -25 -5 -29 -47 -37 -60
-12 -92 -50 -75 -88 14 -32 55 -43 90 -25 15 7 30 15 35 17 4 2 7 -3 7 -12 0
-11 9 -16 30 -16 31 0 41 16 15 26 -12 5 -15 24 -15 88 0 50 -5 89 -12 99 -15
20 -61 28 -103 19z m75 -151 c0 -34 -20 -54 -52 -49 -34 5 -38 55 -6 67 43 18
58 13 58 -18z"/>
<path d="M2003 329 c-33 -9 -39 -22 -27 -53 9 -24 24 -19 24 8 0 17 7 25 24
28 37 7 56 -9 56 -46 0 -31 -3 -34 -37 -41 -57 -10 -83 -31 -83 -65 0 -51 62
-77 108 -44 20 14 22 14 22 0 0 -11 9 -16 29 -16 35 0 50 17 24 28 -15 6 -18
20 -19 90 -1 57 -6 88 -15 98 -19 19 -67 25 -106 13z m77 -154 c0 -29 -4 -36
-25 -41 -53 -13 -77 30 -33 60 38 27 58 21 58 -19z"/>
<path d="M529 301 c-24 -24 -29 -38 -29 -76 0 -76 39 -125 101 -125 29 0 81
29 73 41 -4 7 -10 7 -17 0 -6 -6 -28 -11 -49 -11 -31 0 -40 5 -53 30 -8 16
-15 39 -15 50 0 20 5 21 67 19 71 -3 80 3 69 46 -10 38 -34 55 -77 55 -31 0
-47 -7 -70 -29z m95 3 c9 -8 16 -24 16 -34 0 -14 -10 -19 -47 -22 -27 -3 -49
-4 -51 -3 -1 2 2 14 9 28 9 20 28 36 56 46 1 1 9 -6 17 -15z"/>
<path d="M1073 323 c-28 -5 -30 -23 -3 -23 18 0 20 -7 20 -84 0 -78 -2 -84
-22 -89 -33 -9 -19 -15 42 -18 52 -2 84 12 40 19 -18 3 -20 11 -20 66 0 49 5
69 21 90 26 33 39 33 39 1 0 -16 6 -25 15 -25 10 0 15 11 15 35 0 31 -3 35
-25 35 -14 0 -34 -9 -45 -20 -20 -20 -20 -20 -20 0 0 20 -9 22 -57 13z"/>
<path d="M2193 323 c-27 -5 -31 -23 -5 -23 15 0 17 -11 17 -82 0 -73 -2 -84
-20 -92 -18 -9 -16 -10 13 -14 17 -2 47 -1 65 1 29 4 30 5 10 12 -21 7 -23 14
-23 76 0 56 4 73 20 89 27 27 40 25 40 -6 0 -37 24 -25 28 14 3 29 1 32 -24
32 -15 0 -39 -10 -52 -22 l-24 -23 6 23 c8 23 1 25 -51 15z"/>
<path d="M2647 304 c-67 -67 -34 -186 55 -201 39 -6 88 16 88 39 0 9 -3 9 -12
0 -7 -7 -29 -12 -49 -12 -44 0 -69 27 -69 73 l0 29 68 -3 67 -4 -3 30 c-6 54
-27 75 -76 75 -33 0 -49 -6 -69 -26z m104 -26 c7 -26 5 -28 -26 -28 -18 0 -40
-3 -49 -6 -21 -8 -21 15 0 44 23 33 65 27 75 -10z"/>
<path d="M2838 323 c-22 -5 -24 -23 -3 -23 24 0 22 -158 -2 -176 -25 -18 -16
-20 52 -13 46 4 55 8 38 14 -21 7 -23 14 -23 76 0 56 4 73 20 89 27 27 40 25
40 -5 0 -14 4 -25 9 -25 11 0 21 25 21 51 0 27 -47 25 -77 -3 l-23 -21 0 21
c0 22 -13 26 -52 15z"/>
</g>
</svg>
